<svg width="32" height="32" viewBox="0 0 32 32" xmlns="http://www.w3.org/2000/svg"><path d="M15.49 29.992c.033-.052.065-.107.097-.164.43-.757.415-1.614-.057-2.123.11-.462.145-.98.07-1.34.295-.093.737-.227 1.36-.41 1.837-.544 2.046-.61 2.323-.81.767-.556 1.164-1.693.474-2.548-.505-.627-1.255-.916-2.18-.916-.662 0-4.38.923-6.087 1.42-.166.05-.385.078-.65.088-.266.01-.532 0-.935-.025l-.435-.028c-.042-.063-.093-.15-.148-.26-.034-.065-.068-.137-.11-.227l-.11-.24c.03.062.036-.157.09-.57.115-.87.128-1.135-.045-1.56C8.882 19.623 8 18.692 7.44 18.44c-.445-.202-1.083-.188-1.57.058-.752.38-1.036 1.205-.72 2.1.226.644.185 1.316-.147 2.884-.067.315-.043.24-.362 1.315C2.373 22.167 1 18.744 1 15 1 6.716 7.716 0 16 0c8.284 0 15 6.716 15 15 0 8.284-6.716 15-15 15-.17 0-.34-.003-.51-.008zm-3.914-17.175c.87.154 1.73-.604 1.923-1.692.19-1.087-.36-2.094-1.23-2.247-.87-.154-1.73.604-1.923 1.692-.192 1.087.358 2.094 1.23 2.247zm8.7 1c.87.154 1.73-.604 1.923-1.692.19-1.087-.36-2.094-1.23-2.247-.87-.154-1.73.604-1.923 1.692-.192 1.087.358 2.094 1.23 2.247zm-7.718 5.857c.042-.014.185-.044.454-.078.478-.06 1.133-.096 1.988-.096.432 0 .947.062 1.527.178.5.1 1.03.236 1.58.4.428.13.84.267 1.224.405.23.082.396.146.484.18.257.104.548-.02.65-.277.103-.257-.022-.548-.278-.65-.1-.04-.276-.107-.517-.194-.4-.143-.83-.287-1.276-.42-.577-.174-1.14-.318-1.67-.425-.64-.128-1.218-.197-1.724-.197-.895 0-1.59.04-2.112.104-.33.04-.538.086-.646.122-.262.087-.404.37-.316.632.087.262.37.404.632.316zm-4.553-11.6s.516-.4.872-.65c.458-.318.982-.54 1.57-.624.182-.026.376-.03.58-.012.547.048 1.142.246 1.744.546.247.123.478.256.686.388.124.078.497 0 .497 0l.15-.388s-.027-.355-.15-.482c-.204-.21-.44-.418-.71-.613-.768-.56-1.634-.9-2.578-.9-1.02 0-1.875.395-2.564 1.05-.24.227-.44.47-.608.714-.1.148-.112.564-.112.564l.625.407zm11.75.883l.11-.003c.122-.04.368-.1.735-.162.427-.07.915-.124 1.462-.15.193-.008.397-.014.61-.017.602-.007 1.246.01 1.883.042.32.016.565.032.703.042l.17.013.13-.54-.15-.067c-.176-.08-.45-.2-.75-.322l-.183-.073c-.308-.118-.556-.2-.73-.237-.18-.037-.448-.06-.784-.07-.28-.01-.576-.012-.85-.008l-.114.003c-.06.004-.152.01-.268.02-.195.016-.39.034-.57.054-.282.03-.507.062-.66.094-.122.026-.27.07-.437.125-.062.02-.126.044-.192.067-.224.08-.425.16-.553.214l-.14.06.098.79.48.127zM6.49 31.36c-.864-.445-1.084-.91-1.42-2.534-.337-1.622.608-3.716.91-5.137.3-1.422.458-2.436.11-3.423-.346-.987.65-1.046.935-.916.287.13 1.008.847 1.194 1.303.186.456-.24 1.715-.024 2.178.215.464.55 1.3 1.05 1.3s1.673.178 2.524-.07c.85-.247 5.165-1.38 5.807-1.38.642 0 1.105.177 1.402.545.296.368.005.9-.283 1.11-.29.208-3.503 1.042-4 1.298-.496.256-.486.39-.486.39s.326.26.407.524c.08.263-.037 1.087-.222 1.37-.184.284.124.315.3.396.176.082.346.454.023 1.02-.323.568-.504.677-.504.677s.45.41.11.805c-.343.395-1.638 1.15-3.456 1.15s-3.513-.16-4.376-.605z" fill="#000" fill-rule="evenodd"/></svg>